
<svg width="338px" height="85px" viewBox="0 0 338 85" version="1.1" xmlns="http://www.w3.org/2000/svg" xmlns:xlink="http://www.w3.org/1999/xlink">
	<g id="Page-1" stroke="none" stroke-width="1" fill="none" fill-rule="evenodd">
		<g id="Group" transform="translate(0.024155, 0.078232)" fill="#FFFFFF" fill-rule="nonzero">
			<g id="NSFW">
				<polygon id="Path" points="0 82.717012 7.56475864 82.717012 7.56475864 14.2257353 11.1424238 14.2257353 1.20895562 4.70781634 55.5926293 82.717012 63.1486019 82.717012 63.1486019 1.28298797 55.5838433 1.28298797 55.5838433 69.7742647 52.0061781 69.7742647 61.9396463 79.3098192 7.55597263 1.28298797 0 1.28298797"></polygon>
				<path d="M103.510592,84 C109.447595,84 114.599861,83.0584073 118.967389,81.175222 C123.334916,79.2920367 126.709918,76.629653 129.092392,73.1880708 C131.474866,69.7464886 132.666103,65.7007411 132.666103,61.0508282 L132.666103,60.9943944 C132.666103,54.9883059 130.849009,50.2480107 127.214821,46.7735088 C123.580632,43.2990069 117.614196,40.6282463 109.315512,38.7612269 L100.424944,36.7684071 C94.5371425,35.4357456 90.2221843,33.5728412 87.4800691,31.1796939 C84.7379539,28.7865466 83.3668963,25.697382 83.3668963,21.9122 L83.3668963,21.8381306 C83.3668963,18.896517 84.1899995,16.3230459 85.8362058,14.1177175 C87.482412,11.912389 89.7820049,10.1901283 92.7349845,8.95093532 C95.687964,7.71174235 99.1114346,7.09214587 103.005396,7.09214587 C106.843713,7.09214587 110.222082,7.71967836 113.140504,8.97474334 C116.058925,10.2298083 118.412552,12.0043879 120.201384,14.2984821 C121.990217,16.5925763 123.079097,19.3388759 123.468025,22.5373811 L123.562913,23.2921837 L131.20411,23.2921837 L131.14788,22.4985829 C130.824555,18.0356071 129.437096,14.1140434 126.985506,10.7338918 C124.533915,7.35374021 121.263028,4.71972035 117.172845,2.83183221 C113.082662,0.94394407 108.424317,0 103.19781,0 C97.8623562,0 93.116444,0.94203355 88.9600733,2.82610065 C84.8037026,4.71016775 81.5395517,7.30421364 79.1676206,10.6082383 C76.7956895,13.912263 75.5968378,17.7199303 75.5710655,22.0312402 L75.5710655,22.1053096 C75.5710655,27.8838991 77.4145178,32.5391027 81.1014224,36.0709202 C84.7883271,39.6027377 90.5512205,42.258949 98.3901028,44.0395541 L107.280671,46.0323739 C113.551543,47.4514497 118.050861,49.354769 120.778625,51.7423317 C123.50639,54.1298944 124.870272,57.3300162 124.870272,61.342697 L124.870272,61.3991308 C124.870272,64.5265058 124.003971,67.2582562 122.271369,69.5943818 C120.538767,71.9305074 118.103284,73.7334509 114.96492,75.0032122 C111.826555,76.2729735 108.136722,76.9078541 103.89542,76.9078541 C99.6306881,76.9078541 95.8695417,76.2740022 92.6119803,75.0062984 C89.3544189,73.7385946 86.7492191,71.948143 84.7963809,69.6349436 C82.8435427,67.3217442 81.6726598,64.6035145 81.2837322,61.4802545 L81.1888433,60.7078163 L73.5467677,60.7078163 L73.6029982,61.4802545 C73.9403812,66.0602129 75.3910986,70.0402679 77.9551506,73.4204195 C80.5192025,76.8005711 83.9868961,79.4088724 88.3582313,81.2453234 C92.7295664,83.0817745 97.7803534,84 103.510592,84 Z" id="Path"></path>
				<polygon id="Path" points="143.02976 82.717012 150.671836 82.717012 150.671836 45.721106 188.037877 45.721106 188.037877 38.8608679 150.671836 38.8608679 150.671836 8.22082257 191.313304 8.22082257 191.313304 1.28298797 143.02976 1.28298797"></polygon>
				<polygon id="Path" points="219.020454 82.717012 226.171391 82.717012 246.250949 13.9418026 246.440727 13.9418026 266.521164 82.717012 273.671222 82.717012 296 1.28298797 288.014391 1.28298797 270.057534 71.2503622 269.867757 71.2503622 250.169512 1.28298797 242.522164 1.28298797 222.82392 71.2503622 222.634142 71.2503622 204.677285 1.28298797 196.691676 1.28298797"></polygon>
			</g>
			<g id="®" transform="translate(302.000000, 1.000000)">
				<path d="M11.0983232,27.0489797 L12.6274101,27.0489797 L12.6274101,19.1517842 L17.6603168,19.1517842 C17.7783841,19.1517842 17.8906638,19.1517842 17.9971558,19.1517842 C18.1036478,19.1517842 18.2033877,19.1404019 18.2963753,19.1176373 L23.1134041,27.0489797 L24.8983034,27.0489797 L19.8995436,18.8849754 C21.2904995,18.5527665 22.3834899,17.9181549 23.1785147,16.9811407 C23.9735396,16.0441264 24.371052,14.8982758 24.371052,13.543589 L24.371052,13.5412739 C24.371052,11.8211959 23.7934484,10.459371 22.6382412,9.45579919 C21.483034,8.4522274 19.8972286,7.95044151 17.8808248,7.95044151 L11.0983232,7.95044151 L11.0983232,27.0489797 Z M12.6644508,17.7610213 L12.6644508,9.38982042 L17.7361345,9.38982042 C19.3254126,9.38982042 20.5723534,9.75714081 21.476957,10.4917816 C22.3815607,11.2264224 22.8338625,12.2543021 22.8338625,13.5754208 L22.8338625,13.5754208 C22.8338625,14.8946104 22.38812,15.9220078 21.4966349,16.6576132 C20.6051499,17.3932186 19.3763436,17.7610213 17.810216,17.7610213 L12.6644508,17.7610213 Z M33.4222972,17.3518372 L33.4222972,17.6111221 C33.4222972,20.5496853 32.7189095,23.2161342 31.3121341,25.610469 C29.9053588,28.0048037 28.0109772,29.9052623 25.6289893,31.3118448 C23.2470015,32.7184272 20.586726,33.4217184 17.6481628,33.4217184 L17.3888779,33.4217184 C14.4503147,33.4217184 11.7838658,32.7184272 9.38953104,31.3118448 C6.99519628,29.9052623 5.09473768,28.0048037 3.68815524,25.610469 C2.2815728,23.2161342 1.57828158,20.5496853 1.57828158,17.6111221 L1.57828158,17.3518372 C1.57828158,14.413274 2.2815728,11.7529021 3.68815524,9.3707213 C5.09473768,6.98854053 6.99519628,5.09415892 9.38953104,3.68757648 C11.7838658,2.28099404 14.4503147,1.57770281 17.3888779,1.57770281 L17.6481628,1.57770281 C20.586726,1.57770281 23.2470015,2.28099404 25.6289893,3.68757648 C28.0109772,5.09415892 29.9053588,6.98854053 31.3121341,9.3707213 C32.7189095,11.7529021 33.4222972,14.413274 33.4222972,17.3518372 Z M35,17.3518372 C35,14.9229697 34.5557044,12.6570234 33.6671131,10.5539984 C32.7785219,8.45097342 31.5452784,6.61051306 29.9673827,5.03261732 C28.3894869,3.45472159 26.5490266,2.2214781 24.4460016,1.33288686 C22.3429766,0.44429562 20.0770303,0 17.6481628,0 L17.3888779,0 C14.9603962,0 12.6941606,0.44429562 10.590171,1.33288686 C8.48618139,2.2214781 6.63954757,3.45472159 5.05026954,5.03261732 C3.4609915,6.61051306 2.2219604,8.45097342 1.33317624,10.5539984 C0.44439208,12.6570234 0,14.9229697 0,17.3518372 L0,17.6111221 C0,20.0396038 0.44439208,22.3058394 1.33317624,24.409829 C2.2219604,26.5138186 3.4609915,28.3604524 5.05026954,29.9497305 C6.63954757,31.5390085 8.48618139,32.7780396 10.590171,33.6668238 C12.6941606,34.5556079 14.9603962,35 17.3888779,35 L17.6481628,35 C20.0770303,35 22.3429766,34.5556079 24.4460016,33.6668238 C26.5490266,32.7780396 28.3894869,31.5390085 29.9673827,29.9497305 C31.5452784,28.3604524 32.7785219,26.5138186 33.6671131,24.409829 C34.5557044,22.3058394 35,20.0396038 35,17.6111221 L35,17.3518372 Z" id="Shape"></path>
			</g>
		</g>
	</g>
</svg>