
<svg width="337px" height="194px" viewBox="0 0 337 194" version="1.1" xmlns="http://www.w3.org/2000/svg" xmlns:xlink="http://www.w3.org/1999/xlink">
	<defs>
		<rect id="path-d9rdjdju0d-1" x="0" y="0" width="337" height="194"></rect>
	</defs>
	<g id="Page-1" stroke="none" stroke-width="1" fill="none" fill-rule="evenodd">
		<g id="logo_red">
			<mask id="mask-d9rdjdju0d-2" fill="white">
				<use xlink:href="#path-d9rdjdju0d-1"></use>
			</mask>
			<g id="Mask"></g>
			<g id="noun-lingerie-834401" mask="url(#mask-d9rdjdju0d-2)" fill="#EB083E" fill-rule="nonzero">
				<g transform="translate(73.000000, -53.000000)" id="Shape">
					<path d="M187.135831,172.304684 C186.498981,172.096978 185.848965,171.948299 185.194635,171.828049 C187.72674,148.261032 184.848847,125.426129 176.635509,103.637342 C176.611436,103.528023 176.561101,103.425259 176.512952,103.320311 C172.976297,94.0037692 168.49448,84.8736139 163.011754,75.9639885 C142.071956,39.8928229 141.912281,19.0348512 141.78286,2.27123246 L141.776295,1.56066772 C141.769729,0.699202421 141.00812,0.0935852104 140.194003,0.00615692174 C139.327333,0.0127162823 138.631375,0.72108748 138.637987,1.58691859 L138.644552,2.29748333 C138.775866,19.4277188 138.940001,40.7474596 160.315493,77.5686502 C164.267975,83.9964765 167.675657,90.5429635 170.599105,97.1874014 C160.280197,88.1882207 135.865092,72.802633 95.5015635,80.7870411 C55.1408368,72.80879 30.7296536,88.183743 20.4096243,97.176207 C23.3378906,90.5250524 26.74731,83.9701696 30.7111649,77.5289101 C52.0644372,40.7401832 52.228594,19.4187632 52.3602556,2.29132641 L52.3668207,1.58076167 C52.3733865,0.714930558 51.6774181,0.0109145431 50.8108046,0 L50.7976737,0 C49.9375593,0 49.2350465,0.693101472 49.2284915,1.55451079 L49.2219257,2.26507554 C49.0928021,19.0281345 48.9330434,39.8844271 28.0148819,75.9242483 C22.5304195,84.8383516 18.043896,93.9729846 14.5052801,103.291765 C14.4483799,103.407644 14.3958553,103.52134 14.3674052,103.643779 C6.15396174,125.439842 3.27589495,148.268588 5.80827997,171.828889 C5.15607878,171.946956 4.50611863,172.095629 3.86708359,172.301153 C0.256025804,173.473095 -0.833852203,178.175975 0.630280936,186.276805 C1.42036265,190.664899 3.12518442,196.583492 8.7652877,197.30721 C8.94036963,197.329074 9.12639348,197.342193 9.31679298,197.342193 C9.68446503,197.342193 10.1112447,197.226314 10.5182752,197.151978 C14.3831878,211.842393 20.301013,226.978905 28.1514066,242.168031 C28.1929887,242.248927 28.273964,242.28391 28.3264885,242.356063 C28.3461851,242.384487 28.3746364,242.399792 28.3921457,242.428217 C28.5365869,242.59657 28.6875943,242.740871 28.8823751,242.834887 C29.0246312,242.913595 29.1712575,242.985749 29.3397787,243.01636 C43.9699049,245.668482 58.7406568,247 73.4475389,247 C79.1790209,247 84.9065811,246.798848 90.605568,246.394383 C91.1789403,246.352841 91.6385794,245.996455 91.877083,245.513271 L92.2338131,245.758149 C93.5075131,243.893161 96.0024726,180.852999 79.4900897,155.956647 C81.6479955,154.712557 83.597932,153.247713 85.3509923,151.583833 C86.2111068,151.935847 87.861247,152.408133 90.5815439,152.408133 C91.9428129,152.408133 93.584213,152.276946 95.4969481,151.962103 C97.4141092,152.274757 99.0555093,152.408133 100.416722,152.408133 C103.13926,152.408133 104.787215,151.931498 105.647274,151.58165 C107.400278,153.24553 109.350271,154.710374 111.508177,155.954464 C94.9955695,180.850816 97.4864951,243.892098 98.759971,245.755966 L99.1167011,245.511088 C99.3552496,245.989912 99.8170289,246.350669 100.390401,246.3922 C106.087147,246.796687 111.814707,247 117.546189,247 C132.25083,247 147.025504,245.666299 161.65563,243.014177 C161.824146,242.983567 161.975153,242.907041 162.1196,242.828333 C162.299058,242.743065 162.432557,242.605318 162.570437,242.454457 C162.601076,242.417288 162.644846,242.384492 162.673296,242.345138 C162.723632,242.275173 162.80461,242.242379 162.846187,242.163665 C170.696581,226.974539 176.61407,211.840266 180.479319,197.147612 C180.886383,197.221948 181.317527,197.337827 181.680801,197.337827 C181.8712,197.337827 182.055039,197.324709 182.232312,197.302845 C187.86967,196.581309 189.576789,190.665123 190.367319,186.272439 C191.835822,178.173848 190.743748,173.47108 187.134886,172.299026 L187.135831,172.304684 Z M9.16855153,194.199258 C6.397887,193.845061 4.7192855,191.23011 3.72571656,185.724535 C2.64894869,179.766314 3.06914532,175.863945 4.84624091,175.286873 C11.488149,173.133238 20.0282253,177.381458 22.3981343,178.677994 C22.2952758,178.960043 22.1967873,179.24208 22.1289451,179.532855 L17.0515692,179.237692 C16.1696045,179.145864 15.4451855,179.845492 15.3948739,180.711323 C15.3445377,181.577154 16.0032626,182.318336 16.8699322,182.366415 L22.0720785,182.668138 L22.1683708,183.42029 L15.0709696,184.808676 C14.2196512,184.974846 13.6659441,185.796918 13.8322859,186.64523 C13.9789177,187.395143 14.6354778,187.911149 15.3686369,187.911149 C15.4693104,187.911149 15.5699839,187.902403 15.6728424,187.880539 L22.6693964,186.511855 C18.2617019,190.07134 11.6064595,194.50298 9.16819856,194.199052 L9.16855153,194.199258 Z M24.7970649,227.929114 C34.433014,229.066018 44.1109828,229.658537 53.7928734,229.658537 C65.8340281,229.658537 77.8751827,228.759907 89.8205325,226.999867 C89.8270982,229.372129 89.811779,231.57821 89.778951,233.572101 C68.8587614,235.782548 47.6365905,235.273146 26.682225,232.03287 C26.0410049,230.662004 25.4085249,229.295503 24.7957102,227.929002 L24.7970649,227.929114 Z M89.7986823,223.840526 C67.7820597,227.122333 45.4371234,227.382491 23.3515885,224.612324 C22.7957019,223.311423 22.2638955,222.014887 21.7364647,220.716168 C28.9235078,221.350219 36.1346423,221.693496 43.3547409,221.693496 C58.8252603,221.693496 74.3181902,220.213316 89.6486441,217.318499 C89.7208675,219.581448 89.7690108,221.759095 89.7974609,223.840358 L89.7986823,223.840526 Z M89.5251175,214.165763 C66.7470985,218.512326 43.6009873,219.647103 20.7193199,217.504382 C20.6252127,217.497823 20.5398623,217.526246 20.4501307,217.534992 C19.9599013,216.271256 19.5046883,215.014068 19.0472903,213.759064 C23.6716382,214.021433 28.3067432,214.176665 32.9468345,214.176665 C51.7178584,214.176665 70.5611561,212.009933 89.1691437,207.735406 C89.3179606,209.921785 89.4339572,212.068871 89.5236832,214.165471 L89.5251175,214.165763 Z M17.9068038,210.564748 C17.1823848,208.476712 16.5017783,206.399646 15.8539472,204.326666 C20.4476488,204.768319 32.6965486,205.557603 50.9252387,203.815049 C71.2128923,201.877913 85.4469131,198.869417 88.3557943,198.226579 C88.5855914,200.353963 88.7738003,202.474743 88.9401478,204.573805 C65.4354688,210.017979 41.5453294,212.031517 17.9045067,210.56449 L17.9068038,210.564748 Z M45.4604975,191.490604 C45.504268,193.248461 45.2285153,195.712573 44.051102,196.39907 C44.0314054,196.39907 44.0095199,196.401257 43.9876355,196.401257 C42.7007693,196.401257 38.6170183,192.686562 34.9646132,188.27412 C35.060911,188.158241 35.150637,188.035803 35.238178,187.913364 C37.231927,188.805446 41.4800589,190.580766 45.4607216,191.490311 L45.4604975,191.490604 Z M24.6125817,188.989287 C24.7154403,189.085531 24.8139288,189.190479 24.9233536,189.280118 C22.4328201,193.97214 19.3863946,198.012872 18.2679992,198.040858 C16.8147912,197.658239 15.8584236,196.311435 15.3288078,195.303491 C19.0339897,193.320402 22.8027052,190.44747 24.612352,188.989287 L24.6125817,188.989287 Z M50.9426629,188.744449 C48.8876212,189.581846 42.6306133,187.629375 37.8291664,185.620091 L42.1186457,186.048624 C42.1711703,186.055183 42.2258855,186.05737 42.2762194,186.05737 C43.0728562,186.05737 43.7534627,185.456118 43.8344206,184.647155 C43.9197709,183.787872 43.2916666,183.018257 42.4293951,182.933012 L36.4743685,182.338309 L36.3890181,181.702075 L39.2910081,180.659149 C40.1073101,180.363986 40.5296917,179.465378 40.2364505,178.649865 C39.9410019,177.838719 39.0480784,177.418929 38.2274064,177.705337 L35.7675193,178.592998 C35.594628,178.138225 35.3713971,177.705337 35.110948,177.298645 C36.7479781,175.525451 43.2521177,169.033817 50.2531538,169.361813 C52.1199474,169.462389 53.5293989,173.126827 54.0218134,179.159155 C54.481402,184.727922 53.5337746,187.68817 50.9425564,188.744362 L50.9426629,188.744449 Z M33.0843061,180.6022 L33.4300943,183.23462 C33.714601,185.434152 32.1585793,187.458772 29.959102,187.742998 C28.9042404,187.893859 27.8471938,187.598696 26.9914493,186.9384 C26.1357609,186.282464 25.5886089,185.335753 25.4485433,184.277546 L25.1027551,181.638578 C24.9648802,180.582554 25.2493869,179.528713 25.905947,178.675979 C26.5647032,177.821118 27.5101457,177.274496 28.5693773,177.136749 C28.7444593,177.112698 28.9217318,177.099579 29.0924325,177.099579 C29.9678421,177.099579 30.8213455,177.390371 31.5326544,177.939159 C32.3993239,178.592913 32.94642,179.539623 33.0843005,180.602196 L33.0843061,180.6022 Z M30.6090678,240.044481 C29.814616,238.498702 29.0398855,236.952922 28.2870612,235.409326 C40.2318508,237.151903 52.2511552,238.061448 64.2508504,238.061448 C72.7617931,238.061448 81.2620908,237.606676 89.7186881,236.725564 C89.639904,239.703443 89.5392305,241.964209 89.4713827,243.31347 C69.9434447,244.629708 50.1477013,243.534297 30.6102387,240.044817 L30.6090678,240.044481 Z M55.6040442,158.336532 C54.7373746,158.343091 54.0392319,159.047097 54.045843,159.912928 C54.0480314,160.774393 54.7527258,161.469622 55.6150253,161.469622 L55.6237794,161.469622 C63.8876465,161.42152 70.9038097,160.04407 76.6885166,157.378851 C79.8859328,162.064324 82.3258746,168.127157 84.1797821,174.891935 C80.5052467,174.640497 70.3351436,174.133234 56.6238474,174.929104 C55.6083722,169.342817 53.5424054,166.386655 50.427908,166.218739 C42.0828029,165.718053 34.8980008,172.860938 32.8715325,175.082468 C31.462137,174.199173 29.8251069,173.812183 28.1662267,174.019895 C26.6123956,174.22323 25.2139251,174.940355 24.108696,176.026995 C22.1630735,174.933806 15.6257664,171.564514 8.94463995,171.557966 C6.46066158,148.517645 9.25541178,126.194326 17.2740577,104.856114 C20.2176191,102.413887 42.4180638,85.1304566 68.5531737,94.8292875 C87.2345556,101.762541 90.8566506,115.256834 92.6029878,121.741752 C92.8831189,122.780313 93.1107254,123.60674 93.3558681,124.299841 C91.5875686,147.047428 79.2423037,158.20433 55.603722,158.335864 L55.6040442,158.336532 Z M135.402186,161.47186 L135.41094,161.47186 C136.271054,161.47186 136.973567,160.776576 136.980122,159.915167 C136.986688,159.049336 136.286349,158.34532 135.421921,158.338771 C111.783899,158.207584 99.4402032,147.048096 97.6675337,124.304987 C97.9126484,123.611885 98.1402549,122.781037 98.420414,121.744715 C100.162493,115.259797 103.784476,101.763265 122.465746,94.8322501 C148.559397,85.1530095 170.807968,102.43213 173.751585,104.863555 C181.763895,126.190012 184.560723,148.517249 182.07428,171.559809 C175.397075,171.566368 168.855454,174.942198 166.914146,176.035387 C165.808916,174.948746 164.410446,174.23376 162.85443,174.028287 C161.206475,173.82058 159.56289,174.207571 158.153494,175.088677 C156.135654,172.862893 148.97696,165.713364 140.592636,166.231665 C137.476178,166.400017 135.410211,169.356023 134.396697,174.94203 C120.685401,174.146164 110.513281,174.651238 106.840762,174.904861 C108.694446,168.140083 111.139038,162.074956 114.33651,157.389538 C120.120657,160.050392 127.13738,161.430046 135.401247,161.47376 L135.402186,161.47186 Z M170.563119,217.533432 C170.471203,217.524686 170.390228,217.496263 170.296121,217.502822 C147.423978,219.649853 124.277866,218.515132 101.490323,214.164203 C101.58224,212.067436 101.700421,209.920405 101.844863,207.736377 C120.453971,212.010792 139.292786,214.177637 158.067172,214.177637 C162.706815,214.177637 167.342312,214.020215 171.962234,213.760035 C171.507021,215.01504 171.051808,216.272227 170.561578,217.53378 L170.563119,217.533432 Z M164.332443,232.027385 C143.377518,235.265478 122.155347,235.779245 101.235717,233.566615 C101.205078,231.576978 101.185381,229.366531 101.194135,226.994381 C113.138925,228.752238 125.176158,229.653052 137.221794,229.653052 C146.901444,229.653052 156.579413,229.060532 166.215362,227.923629 C165.606973,229.292312 164.974493,230.658813 164.331032,232.027497 L164.332443,232.027385 Z M167.66337,224.613332 C145.574474,227.383499 123.229537,227.121158 101.221879,223.841534 C101.245953,221.760046 101.296287,219.578033 101.372886,217.319674 C116.705581,220.216674 132.19627,221.694671 147.669031,221.694671 C154.884647,221.694671 162.095782,221.353589 169.282825,220.717344 C168.753203,222.013879 168.219223,223.312598 167.663331,224.6135 L167.66337,224.613332 Z M173.115001,210.561557 C149.480902,212.041737 125.589082,210.01714 102.07936,204.570872 C102.245691,202.469739 102.43609,200.351086 102.663714,198.223646 C105.572259,198.866428 119.806616,201.874924 140.09595,203.812116 C158.32408,205.55251 170.573092,204.765375 175.167242,204.323734 C174.519466,206.39425 173.838804,208.473555 173.114385,210.561815 L173.115001,210.561557 Z M156.055578,188.271262 C152.387598,192.703126 148.286423,196.430862 147.10427,196.430862 C147.08895,196.430862 147.07363,196.430862 147.060499,196.428676 C145.815204,195.720294 145.526333,193.249633 145.561349,191.485227 C149.542292,190.575682 153.788239,188.798123 155.777169,187.90828 C155.871277,188.037278 155.958818,188.155346 156.05511,188.271225 L156.055578,188.271262 Z M165.915072,181.639697 L165.57366,184.272117 C165.282587,186.469467 163.299779,188.039314 161.060916,187.739751 C158.863624,187.45552 157.307607,185.433089 157.596479,183.231373 L157.937891,180.594588 C158.075766,179.534198 158.625109,178.587487 159.478612,177.933734 C160.194235,177.384945 161.043424,177.094154 161.923204,177.094154 C162.098286,177.094154 162.271177,177.107273 162.446259,177.131323 L162.448448,177.131323 C164.64574,177.417743 166.201756,179.442351 165.91507,181.639701 L165.915072,181.639697 Z M155.250482,178.587487 L152.790594,177.704193 C151.967681,177.422144 151.076977,177.83538 150.779365,178.648721 C150.483917,179.464233 150.908489,180.362864 151.724808,180.658004 L154.631168,181.705296 L154.550193,182.34153 L148.597407,182.936233 C147.737293,183.021501 147.104813,183.788911 147.194567,184.650376 C147.273351,185.45934 147.956187,186.060591 148.750583,186.060591 C148.803108,186.060591 148.857823,186.058404 148.910348,186.051845 L153.199827,185.623312 C148.402582,187.632595 142.156499,189.593855 140.08633,188.74767 C137.497303,187.691646 136.54749,184.735596 137.002703,179.155745 C137.499499,173.121402 138.906698,169.456914 140.773548,169.358404 C147.783548,169.063241 154.270264,175.524281 155.911832,177.295236 C155.642643,177.699723 155.423793,178.128267 155.250891,178.587406 L155.250482,178.587487 Z M172.79173,198.033285 C171.640559,198.013607 168.594134,193.970948 166.099398,189.278702 C166.208823,189.186874 166.318248,189.09723 166.425488,188.998842 C168.244155,190.461559 172.001833,193.327941 175.696146,195.30241 C175.166524,196.308171 174.223273,197.650604 172.791971,198.033285 L172.79173,198.033285 Z M101.554395,243.315765 C101.484362,241.964545 101.385879,239.703835 101.307089,236.727859 C109.763687,237.60897 118.261743,238.063743 126.777168,238.063743 C138.774622,238.063743 150.793927,237.158564 162.734794,235.411621 C161.981914,236.9574 161.207183,238.503179 160.412788,240.046776 C140.869162,243.527563 121.087425,244.627301 101.557246,243.315429 L101.554395,243.315765 Z M187.296918,185.720561 C186.305534,191.228095 184.624747,193.840981 181.854083,194.195284 C179.451062,194.501378 172.771673,190.065165 168.352885,186.510326 L175.344957,187.87901 C175.44563,187.900874 175.546304,187.90962 175.649162,187.90962 C176.380136,187.90962 177.038893,187.391442 177.183328,186.643701 C177.351844,185.793206 176.798148,184.973272 175.944645,184.807147 L168.853967,183.418761 L168.950259,182.666609 L174.152405,182.364886 C175.014705,182.314599 175.677831,181.575569 175.627463,180.709794 C175.574939,179.848329 174.822087,179.14213 173.970768,179.236163 L168.893392,179.531325 C168.827735,179.240534 168.729252,178.958508 168.624203,178.676465 C170.987837,177.377746 179.514579,173.12516 186.178337,175.285344 C187.953248,175.858162 188.373445,179.760923 187.296677,185.721327 L187.296918,185.720561 Z"></path>
				</g>
			</g>
		</g>
	</g>
</svg>