
<svg width="84px" height="119px" viewBox="0 0 84 119" version="1.1" xmlns="http://www.w3.org/2000/svg" xmlns:xlink="http://www.w3.org/1999/xlink">
	<g id="Page-1" stroke="none" stroke-width="1" fill="none" fill-rule="evenodd">
		<g id="noun-makeup-1704051">
			<rect id="Rectangle" x="0" y="0" width="84" height="119"></rect>
			<path d="M60.6246615,67.6962886 C60.6347462,67.6908903 60.6626737,67.686263 60.6626737,67.6808648 L60.6626737,62.4530127 C60.6626737,62.4206229 60.513731,62.3944007 60.3291015,62.3944007 L59.1538439,62.3944007 L59.1530682,47.6274952 L57.7885341,47.6274952 L57.7885341,33.6874116 C57.7885341,32.6493829 57.4580599,31.6391123 56.84523,30.7984705 L50.8255596,22.5519681 C50.2429749,21.911872 49.210464,22.0059655 48.7606172,22.7439969 C47.5364865,24.7482701 45.5359072,28.9706294 45.0346652,35.7332747 L45.0346652,47.6274281 L43.6724546,47.6274281 L43.6724546,62.3935439 L42.8695539,62.3935439 L43.3668042,60.5365113 C43.4404991,60.2612001 43.3202586,59.9889688 43.097615,59.9303529 L21.5763798,54.2336129 C21.3537401,54.1750009 21.1140416,54.3508349 21.0395702,54.6261559 L9.02167715,99.4972374 C8.94798226,99.7725486 9.06822275,100.04478 9.29086636,100.103396 L30.8121016,105.800136 C31.0347412,105.858748 31.2744398,105.682914 31.3489112,105.407593 L39.8610889,73.6278586 L39.8610889,105.42931 C39.8610889,105.658364 40.0480439,105.844221 40.2784464,105.844221 L62.5483672,105.844221 C62.7787718,105.844221 62.9657247,105.658362 62.9657247,105.42931 L62.9657247,68.1117638 C62.9641731,67.8827097 62.7772188,67.6968524 62.5475927,67.6968524 L60.6246615,67.6962886 Z M11.3797182,99.5865816 L23.1299115,55.7144778 L25.4975055,56.3414647 L13.7481066,100.213568 L11.3797182,99.5865816 Z M27.6819993,103.902916 L19.7010507,101.789861 L31.451244,57.9177569 L39.4321926,60.0308121 L27.6819993,103.902916 Z M42.1628098,65.0316239 L42.1628098,67.6814816 C42.1628098,67.6884223 42.1907356,67.6915071 42.200822,67.6969053 L41.4491178,67.6969053 L42.1628098,65.0316239 Z M44.6134146,105.014427 L42.1620154,105.014427 L42.1627913,68.5260719 L44.6141905,68.5260719 L44.6134146,105.014427 Z M45.9678603,67.623833 L44.0060062,67.623833 L44.0067819,62.5547117 L45.968636,62.5547117 L45.9678603,67.623833 Z M47.020548,61.6238461 L45.4380213,61.6238461 L45.4380213,48.1818694 L47.020548,48.1818694 L47.020548,61.6238461 Z M51.0008942,48.1818694 L56.3356265,48.1818694 L56.3356265,61.6238461 L51.0008942,61.6238461 L51.0008942,48.1818694 Z M50.901599,62.5547117 L57.5140616,62.5547117 L57.5140616,67.623833 L50.901599,67.623833 L50.901599,62.5547117 Z M59.0320862,105.015216 L50.7735082,105.015216 L50.7735082,68.5268616 L59.0320862,68.5268616 L59.0320862,105.015216 Z" id="Shape" fill="#000000" fill-rule="nonzero"></path>
			<path d="M58.3885341,47.627495 C58.3885341,39.6202532 58.292755,34.2051753 58.1011969,31.3822612 C57.9947836,29.8140915 56.0799233,28.4395022 54.6400007,26.4631888 C53.8719144,25.4089799 52.6734841,23.5644663 51.0447101,20.9296482 L49.2741658,20.9296482 L45.4591458,29.862228 L44.9873211,34.2785716 L44.9873211,47.627495 L58.3885341,47.627495 Z" id="Path-2" fill="#D8003F" fill-rule="nonzero"></path>
		</g>
	</g>
</svg>